<!DOCTYPE svg PUBLIC "-//W3C//DTD SVG 1.1//EN" "http://www.w3.org/Graphics/SVG/1.1/DTD/svg11.dtd">

<!-- Uploaded to: SVG Repo, www.svgrepo.com, Transformed by: SVG Repo Mixer Tools -->
<svg fill="#fff" width="25px" height="25px" viewBox="0 0 24 24" xmlns="http://www.w3.org/2000/svg" stroke="#fff">

<g id="SVGRepo_bgCarrier" stroke-width="0"/>

<g id="SVGRepo_tracerCarrier" stroke-linecap="round" stroke-linejoin="round"/>

<g id="SVGRepo_iconCarrier">

<path d="M23,12A11,11,0,1,1,12,1a10.9,10.9,0,0,1,5.882,1.7l1.411-1.411A1,1,0,0,1,21,2V6a1,1,0,0,1-1,1H16a1,1,0,0,1-.707-1.707L16.42,4.166A8.9,8.9,0,0,0,12,3a9,9,0,1,0,9,9,1,1,0,0,1,2,0Z"/>

</g>

</svg>